<svg version="1" xmlns="http://www.w3.org/2000/svg" width="446.667" height="446.667" viewBox="0 0 335.000000 335.000000"><path d="M4.5 1c.5.8 4.7 7.3 9.3 14.5 4.7 7.1 11.8 18.2 15.9 24.5l14.9 22.9c4.1 6.3 7.4 11.7 7.4 12 0 .4-1.2 2-2.7 3.7-14.9 16.5-26.8 38.4-30.9 56.9-5.3 23.5-5.2 43.9.2 65 2 7.8 7.6 22.2 11 28.2 4.5 8.1 13.1 20.6 17.9 25.7 2.5 2.7 4.5 5.2 4.5 5.6 0 .3-8.6 13.8-19 29.9C22.5 306 14 319.6 14 320c0 .5-.3 1-.8 1.2-.6.3-2.3 2.7-7.8 11.3l-1.9 3 4.5-3.6c2.5-1.9 14.2-11.1 26-20.4 11.8-9.3 25.9-20.4 31.2-24.7 5.3-4.3 10-7.8 10.4-7.8.5 0 4.6 2 9.3 4.4 4.8 2.4 12.9 5.9 18.1 7.7 5.2 1.8 9.6 3.3 9.8 3.5.2.1-.6 3.6-1.6 7.8-1.1 4.2-1.7 7.6-1.3 7.6.3-.1 2.8-3.2 5.5-7l4.9-7 4.6.6c2.5.3 5.7.7 7.1 1 3.1.5 18.8.5 25.1 0 5-.5 8.6-1 16.2-2.4 4.2-.9 4.7-.8 4.8.9.1 1.1.2 2.2.3 2.6.9 3.6 1.7 7.4 2.1 10.3 1.9 12.3 2.7 13.1 4.1 4 3.4-22.3 3.4-22.1 6.6-23.2 9.5-3.3 33.5-17.2 34.6-19.9 1-2.6 4.3-.3 8.2 5.6 2.3 3.6 4.4 6.5 4.5 6.5.2 0 .1-5-.1-11l-.5-11 5.7-6.8c10.3-12.1 19.8-28.1 24.5-41.5 1.3-3.8 1.5-3.9 5.4-3.3 6.7 1 28.5 2 28.5 1.3 0-.6-7.6-4.9-9-5.2-.3-.1-4.9-2.3-10.3-5-9.7-4.9-9.9-5-9.2-8 .3-1.6.8-5.5 1.1-8.5.4-3 1-5.9 1.4-6.4.9-.9 13.3-3.1 28.8-5.1 2-.3 11-1.7 18.2-2.9 1.4-.3 3.6-.5 5-.6 1.4-.1-2.4-1-8.5-2-6-1-12.3-2.1-14-2.3-1.6-.3-6.6-1.1-11-1.7-4.4-.7-8.7-1.3-9.5-1.5-.8-.1-3.4-.6-5.6-.9l-4.1-.7-.7-6.7c-.3-3.7-.8-7.9-1.1-9.3-.4-2.4.2-2.9 9.3-7.5 5.3-2.7 9.9-4.9 10.2-4.9 1.2-.2 9-4.6 9-5.2 0-.7-23.2.3-29.1 1.3l-3.6.5-2.8-7.6c-4.8-12.9-15.4-29.9-25.8-41-2.8-3-2.8-3-2.3-14.3.3-6.1.3-11.2.2-11.2-.2 0-2.3 2.9-4.6 6.5s-4.8 6.5-5.5 6.5c-.7 0-2.3-.8-3.6-1.8-9.4-7.3-24.4-15.8-33.8-19-1.7-.6-3.1-1.5-3.1-2s-.7-4.9-1.6-9.8c-.8-4.9-1.8-10.4-2-12.3-.8-6.1-2.1-6.7-2.8-1.5-.4 2.7-.9 5.6-1.1 6.4-.1.8-.8 4.2-1.4 7.5-1.3 7.1-2 7.9-5.3 6.6-1.5-.5-5.2-1.3-8.5-1.8-7.3-1-34.2-1-40.4 0l-4.6.7-4.9-7c-2.7-3.8-5.2-6.9-5.6-7-.3 0-.2 1.6.4 3.6.9 3.4 1.2 4.6 2.5 10.1.4 1.8-.2 2.3-5.4 3.7-7.4 2.1-13.8 4.8-23.3 9.7-4.2 2.1-7.8 3.9-8.1 3.9C75.2 56 39.5 28.2 9 3.9 6 1.5 4 .2 4.5 1zM72 69.9c.3.3 1.2 1 2.1 1.6 1.9 1.2 9.8 6.3 30.3 19.8 8.6 5.6 21.7 14.2 29.1 19.1 7.5 4.9 13.8 8.7 14 8.5.2-.2-.1-2.7-.6-5.4-.6-2.8-1.2-6.1-1.5-7.5-.3-1.4-1.4-7-2.5-12.4-1-5.5-1.7-10.1-1.5-10.4.7-.7 1.9.7 19 22.1 8.7 10.9 16 19.6 16.3 19.4.2-.2.6-2.3.8-4.7.2-2.4.7-5.9.9-7.9.5-3.6 2-15.5 3.2-26.1.6-5.1 2.3-9.3 2.5-5.9 0 .7.2 2.1.4 2.9.6 2.3 7.6 33.2 8.1 35.5 1.1 5.4 3.4 14.9 3.9 16.2.4 1.2 7.3-5.5 22.6-22 3.4-3.7 6.6-6.7 7-6.7.4 0 .6 1.9.4 4.2-.2 2.4-.6 8.8-1 14.3-.3 5.5-.8 13.1-1.1 16.8l-.5 6.8 5.3-.6c2.9-.3 7-.9 9.1-1.4 3.2-.8 3.7-.7 3.7.9 0 1.2-2.6 3.4-7.5 6.4-4.2 2.5-8 4.6-8.5 4.6-2.9 0-.1 2.4 6.5 5.6 4.2 2 7.4 3.8 7.3 3.9-.2.1-3.8 2-8 4.2l-7.6 3.9 8.9 5.2c6.4 3.8 8.9 5.8 8.9 7.2 0 1.1-.5 1.8-1.2 1.5-.7-.2-2.9-.6-4.8-.9-5.6-.9-9.4-1.6-10.8-2.1-.9-.3-1.1 1.3-.7 7.3.3 4.2.7 12 1.1 17.2.3 5.2.7 11.4.9 13.7.2 2.4 0 4.3-.4 4.3s-5-4.6-10.3-10.3c-16.5-17.7-19.3-20.2-19.6-18.1-.3 1.5-8.6 37.8-9.6 41.9-.2.5-.6 3.1-1 5.7-.5 2.6-1.4 5.5-2.2 6.5-1.2 1.6-1.3 1.5-1.5-1.7 0-1.9-.3-4.9-.5-6.5-1.2-8.3-1.4-10.4-1.9-14.7-.2-2.5-.6-5.9-.9-7.5-.2-1.5-.7-5.6-1.1-9.1l-.7-6.2-3.6 4.7c-2 2.7-3.9 5-4.2 5.3-.3.3-4.9 5.9-10.1 12.5-5.2 6.6-10.2 12.9-11.1 14-.9 1.1-2.5 3.1-3.6 4.5s-2.3 2.3-2.6 2c-.3-.3 1-8.4 2.8-18 1.8-9.6 3.2-17.7 3-17.9-.2-.2-8.1 4.7-17.6 11-62 40.6-61.7 40.4-62.4 39.6-.3-.3 3.4-7 8.2-14.9 4.8-7.8 9.5-15.7 10.4-17.3 1-1.7 5.4-9 9.9-16.2 4.4-7.3 8.1-13.7 8.1-14.2s.3-1.1.8-1.3c1-.4 8.4-13 7.9-13.5-.2-.2-2.4-.6-4.8-.8-2.4-.3-5.3-.7-6.4-.9-1.1-.3-3.5-.5-5.2-.5-2.1-.1-3.3-.6-3.3-1.5 0-1.5 17.4-15.5 20.3-16.3 2.3-.7 2.1-2-.5-3.4-1.3-.7-2.5-1.5-2.8-1.8-.3-.4-4.2-3.5-8.7-7-7.7-5.9-10.1-9-7-9.2 7.9-.3 18.7-1.8 18.7-2.4 0-.9-21.5-36-22.2-36.3-.5-.2-.8-.8-.8-1.3S84.8 98.4 78.5 88C72.2 77.5 67 68.7 67 68.4c0-.7 4.3.6 5 1.5z"/></svg>